<mxfile host="Electron" modified="2023-04-27T12:17:00.225Z" agent="Mozilla/5.0 (Windows NT 10.0; Win64; x64) AppleWebKit/537.36 (KHTML, like Gecko) draw.io/21.2.1 Chrome/112.0.5615.87 Electron/24.1.2 Safari/537.36" etag="NCM2YJCwC076ScCErpnN" version="21.2.1" type="device">
  <diagram name="Page-1" id="EoY9ZldRt3eMcbztC0KL">
    <mxGraphModel dx="2390" dy="1423" grid="1" gridSize="10" guides="1" tooltips="1" connect="1" arrows="1" fold="1" page="1" pageScale="1" pageWidth="827" pageHeight="1169" math="0" shadow="0">
      <root>
        <mxCell id="0" />
        <mxCell id="1" parent="0" />
        <mxCell id="_iV--dBvjYny3QtOdp7g-2" value="Super Admin" style="shape=umlActor;verticalLabelPosition=bottom;verticalAlign=top;html=1;outlineConnect=0;fontSize=14;" parent="1" vertex="1">
          <mxGeometry x="31" y="330" width="30" height="60" as="geometry" />
        </mxCell>
        <mxCell id="_iV--dBvjYny3QtOdp7g-3" value="System User" style="shape=umlActor;verticalLabelPosition=bottom;verticalAlign=top;html=1;outlineConnect=0;fontSize=14;" parent="1" vertex="1">
          <mxGeometry x="31" y="620" width="30" height="60" as="geometry" />
        </mxCell>
        <mxCell id="_iV--dBvjYny3QtOdp7g-5" value="" style="rounded=0;whiteSpace=wrap;html=1;" parent="1" vertex="1">
          <mxGeometry x="100" y="46" width="644" height="1080" as="geometry" />
        </mxCell>
        <mxCell id="_iV--dBvjYny3QtOdp7g-6" value="User Login" style="ellipse;whiteSpace=wrap;html=1;strokeWidth=1;fontSize=16;fontStyle=1;points=[[0,0,0,0,0],[0,0.5,0,0,0],[0,1,0,0,0],[0.06,0.23,0,0,0],[0.06,0.73,0,0,0],[0.21,0.91,0,0,0],[0.23,0.09,0,0,0],[0.29,0.95,0,0,0],[0.32,0.03,0,0,0],[0.38,1,0,0,0],[0.4,0,0,0,0],[0.5,0,0,0,0],[0.5,1,0,0,0],[0.59,0,0,0,0],[0.64,0.97,0,0,0],[0.69,0.01,0,0,0],[0.76,0.94,0,0,0],[0.77,0.06,0,0,0],[0.94,0.24,0,0,0],[0.95,0.68,0,0,0],[1,0,0,0,0],[1,0.5,0,0,0],[1,1,0,0,0]];" parent="1" vertex="1">
          <mxGeometry x="530" y="450" width="200" height="60" as="geometry" />
        </mxCell>
        <mxCell id="_iV--dBvjYny3QtOdp7g-7" value="Manage Products" style="ellipse;whiteSpace=wrap;html=1;strokeWidth=1;fontSize=16;fontStyle=1;points=[[0,0,0,0,0],[0,0.5,0,0,0],[0,1,0,0,0],[0.5,0,0,0,0],[0.5,1,0,0,0],[0.64,0,0,0,0],[0.64,0.97,0,0,0],[0.74,0.92,0,0,0],[0.76,0.06,0,0,0],[0.94,0.26,0,0,0],[0.95,0.73,0,0,0],[1,0,0,0,0],[1,0.5,0,0,0],[1,1,0,0,0]];" parent="1" vertex="1">
          <mxGeometry x="170" y="380" width="200" height="60" as="geometry" />
        </mxCell>
        <mxCell id="_iV--dBvjYny3QtOdp7g-8" value="Process Purchase" style="ellipse;whiteSpace=wrap;html=1;strokeWidth=1;fontSize=16;fontStyle=1;points=[[0,0,0,0,0],[0,0.5,0,0,0],[0,1,0,0,0],[0.5,0,0,0,0],[0.5,1,0,0,0],[0.62,0.99,0,0,0],[0.63,0,0,0,0],[0.75,0.93,0,0,0],[0.77,0.05,0,0,0],[0.85,0.9,0,0,0],[0.88,0.15,0,0,0],[0.94,0.75,0,0,0],[0.95,0.25,0,0,0],[1,0.5,0,0,0]];" parent="1" vertex="1">
          <mxGeometry x="170" y="610" width="200" height="60" as="geometry" />
        </mxCell>
        <mxCell id="_iV--dBvjYny3QtOdp7g-9" value="Process Sales" style="ellipse;whiteSpace=wrap;html=1;strokeWidth=1;fontSize=16;fontStyle=1;points=[[0,0,0,0,0],[0,0.5,0,0,0],[0,1,0,0,0],[0.5,0,0,0,0],[0.5,1,0,0,0],[0.85,0.1,0,0,0],[0.85,0.85,0,0,0],[0.94,0.24,0,0,0],[0.94,0.72,0,0,0],[1,0.5,0,0,0]];" parent="1" vertex="1">
          <mxGeometry x="170" y="810" width="200" height="60" as="geometry" />
        </mxCell>
        <mxCell id="_iV--dBvjYny3QtOdp7g-10" value="Manage System User" style="ellipse;whiteSpace=wrap;html=1;strokeWidth=1;fontSize=16;fontStyle=1" parent="1" vertex="1">
          <mxGeometry x="170" y="270" width="200" height="60" as="geometry" />
        </mxCell>
        <mxCell id="_iV--dBvjYny3QtOdp7g-11" value="Create Common Setup" style="ellipse;whiteSpace=wrap;html=1;strokeWidth=1;fontSize=16;fontStyle=1;points=[[0,0,0,0,0],[0,0.5,0,0,0],[0,1,0,0,0],[0.5,0,0,0,0],[0.5,1,0,0,0],[0.73,0,0,0,0],[0.77,1,0,0,0],[0.84,0.1,0,0,0],[0.87,0.83,0,0,0],[0.94,0.23,0,0,0],[0.96,0.71,0,0,0],[1,0.5,0,0,0]];" parent="1" vertex="1">
          <mxGeometry x="170" y="160" width="200" height="60" as="geometry" />
        </mxCell>
        <mxCell id="_iV--dBvjYny3QtOdp7g-13" value="&lt;div style=&quot;&quot;&gt;&lt;font style=&quot;background-color: initial; font-size: 17px;&quot;&gt;zInventory &lt;/font&gt;&lt;span style=&quot;background-color: initial;&quot;&gt;-&lt;/span&gt;&lt;/div&gt;&lt;font style=&quot;font-size: 12px;&quot;&gt;WEB-BASED INVENTORY MANAGEMENT SYSYTEM&lt;/font&gt;" style="text;html=1;strokeColor=none;fillColor=none;align=center;verticalAlign=middle;whiteSpace=wrap;rounded=0;fontStyle=1;fontSize=15;" parent="1" vertex="1">
          <mxGeometry x="228" y="52" width="388" height="30" as="geometry" />
        </mxCell>
        <mxCell id="_iV--dBvjYny3QtOdp7g-14" value="" style="endArrow=none;html=1;rounded=0;exitX=1;exitY=0.3333333333333333;exitDx=0;exitDy=0;exitPerimeter=0;entryX=0;entryY=0.5;entryDx=0;entryDy=0;" parent="1" source="_iV--dBvjYny3QtOdp7g-2" target="_iV--dBvjYny3QtOdp7g-7" edge="1">
          <mxGeometry width="50" height="50" relative="1" as="geometry">
            <mxPoint x="330" y="210" as="sourcePoint" />
            <mxPoint x="380" y="160" as="targetPoint" />
          </mxGeometry>
        </mxCell>
        <mxCell id="_iV--dBvjYny3QtOdp7g-15" value="" style="endArrow=none;html=1;rounded=0;exitX=1;exitY=0.3333333333333333;exitDx=0;exitDy=0;exitPerimeter=0;entryX=0;entryY=0.5;entryDx=0;entryDy=0;" parent="1" source="_iV--dBvjYny3QtOdp7g-2" target="_iV--dBvjYny3QtOdp7g-8" edge="1">
          <mxGeometry width="50" height="50" relative="1" as="geometry">
            <mxPoint x="80" y="235" as="sourcePoint" />
            <mxPoint x="250" y="180" as="targetPoint" />
          </mxGeometry>
        </mxCell>
        <mxCell id="_iV--dBvjYny3QtOdp7g-18" value="&amp;lt;&amp;lt;include&amp;gt;&amp;gt;" style="endArrow=open;endSize=12;dashed=1;html=1;rounded=0;exitX=1;exitY=0.5;exitDx=0;exitDy=0;entryX=0.06;entryY=0.23;entryDx=0;entryDy=0;fontStyle=0;fontSize=10;entryPerimeter=0;" parent="1" source="_iV--dBvjYny3QtOdp7g-7" target="_iV--dBvjYny3QtOdp7g-6" edge="1">
          <mxGeometry x="-0.0296" y="5" width="160" relative="1" as="geometry">
            <mxPoint x="280" y="390" as="sourcePoint" />
            <mxPoint x="440" y="390" as="targetPoint" />
            <Array as="points" />
            <mxPoint as="offset" />
          </mxGeometry>
        </mxCell>
        <mxCell id="_iV--dBvjYny3QtOdp7g-20" value="&amp;lt;&amp;lt;include&amp;gt;&amp;gt;" style="endArrow=open;endSize=12;dashed=1;html=1;rounded=0;exitX=1;exitY=0.5;exitDx=0;exitDy=0;entryX=0.29;entryY=0.95;entryDx=0;entryDy=0;fontStyle=0;fontSize=10;entryPerimeter=0;" parent="1" source="_iV--dBvjYny3QtOdp7g-8" target="_iV--dBvjYny3QtOdp7g-6" edge="1">
          <mxGeometry x="-0.0296" y="5" width="160" relative="1" as="geometry">
            <mxPoint x="400" y="180" as="sourcePoint" />
            <mxPoint x="520" y="230" as="targetPoint" />
            <mxPoint as="offset" />
            <Array as="points">
              <mxPoint x="470" y="590" />
            </Array>
          </mxGeometry>
        </mxCell>
        <mxCell id="_iV--dBvjYny3QtOdp7g-21" value="" style="endArrow=none;html=1;rounded=0;exitX=1;exitY=0.3333333333333333;exitDx=0;exitDy=0;exitPerimeter=0;entryX=0;entryY=0.5;entryDx=0;entryDy=0;" parent="1" source="_iV--dBvjYny3QtOdp7g-2" target="_iV--dBvjYny3QtOdp7g-9" edge="1">
          <mxGeometry width="50" height="50" relative="1" as="geometry">
            <mxPoint x="80" y="235" as="sourcePoint" />
            <mxPoint x="200" y="330" as="targetPoint" />
          </mxGeometry>
        </mxCell>
        <mxCell id="_iV--dBvjYny3QtOdp7g-22" value="&amp;lt;&amp;lt;include&amp;gt;&amp;gt;" style="endArrow=open;endSize=12;dashed=1;html=1;rounded=0;exitX=1;exitY=0.5;exitDx=0;exitDy=0;fontStyle=0;fontSize=10;" parent="1" source="_iV--dBvjYny3QtOdp7g-9" target="_iV--dBvjYny3QtOdp7g-6" edge="1">
          <mxGeometry x="-0.0296" y="5" width="160" relative="1" as="geometry">
            <mxPoint x="400" y="330" as="sourcePoint" />
            <mxPoint x="460" y="260" as="targetPoint" />
            <mxPoint as="offset" />
            <Array as="points">
              <mxPoint x="530" y="710" />
            </Array>
          </mxGeometry>
        </mxCell>
        <mxCell id="_iV--dBvjYny3QtOdp7g-23" value="" style="endArrow=none;html=1;rounded=0;exitX=1;exitY=0.3333333333333333;exitDx=0;exitDy=0;exitPerimeter=0;entryX=0;entryY=0.5;entryDx=0;entryDy=0;" parent="1" source="_iV--dBvjYny3QtOdp7g-2" target="_iV--dBvjYny3QtOdp7g-10" edge="1">
          <mxGeometry width="50" height="50" relative="1" as="geometry">
            <mxPoint x="80" y="235" as="sourcePoint" />
            <mxPoint x="200" y="240" as="targetPoint" />
          </mxGeometry>
        </mxCell>
        <mxCell id="_iV--dBvjYny3QtOdp7g-30" value="" style="endArrow=none;html=1;rounded=0;exitX=1;exitY=0.3333333333333333;exitDx=0;exitDy=0;exitPerimeter=0;entryX=0;entryY=0.5;entryDx=0;entryDy=0;" parent="1" source="_iV--dBvjYny3QtOdp7g-2" target="_iV--dBvjYny3QtOdp7g-11" edge="1">
          <mxGeometry width="50" height="50" relative="1" as="geometry">
            <mxPoint x="80" y="260" as="sourcePoint" />
            <mxPoint x="180" y="260" as="targetPoint" />
          </mxGeometry>
        </mxCell>
        <mxCell id="_iV--dBvjYny3QtOdp7g-32" value="Manage Branch" style="ellipse;whiteSpace=wrap;html=1;" parent="1" vertex="1">
          <mxGeometry x="560" y="120" width="80" height="50" as="geometry" />
        </mxCell>
        <mxCell id="_iV--dBvjYny3QtOdp7g-33" value="Manage Warehouse" style="ellipse;whiteSpace=wrap;html=1;" parent="1" vertex="1">
          <mxGeometry x="570" y="200" width="80" height="50" as="geometry" />
        </mxCell>
        <mxCell id="_iV--dBvjYny3QtOdp7g-35" value="&amp;lt;&amp;lt;Extend&amp;gt;&amp;gt;" style="endArrow=open;endSize=12;dashed=1;html=1;rounded=0;entryX=0.94;entryY=0.23;entryDx=0;entryDy=0;fontStyle=0;fontSize=10;entryPerimeter=0;exitX=0;exitY=0.5;exitDx=0;exitDy=0;" parent="1" source="_iV--dBvjYny3QtOdp7g-32" target="_iV--dBvjYny3QtOdp7g-11" edge="1">
          <mxGeometry x="0.2493" width="160" relative="1" as="geometry">
            <mxPoint x="390" y="180" as="sourcePoint" />
            <mxPoint x="430" y="125" as="targetPoint" />
            <mxPoint as="offset" />
          </mxGeometry>
        </mxCell>
        <mxCell id="_iV--dBvjYny3QtOdp7g-36" value="&amp;lt;&amp;lt;Extend&amp;gt;&amp;gt;" style="endArrow=open;endSize=12;dashed=1;html=1;rounded=0;entryX=0.96;entryY=0.71;entryDx=0;entryDy=0;fontStyle=0;fontSize=10;entryPerimeter=0;exitX=0;exitY=0.5;exitDx=0;exitDy=0;" parent="1" source="_iV--dBvjYny3QtOdp7g-33" target="_iV--dBvjYny3QtOdp7g-11" edge="1">
          <mxGeometry x="0.2493" width="160" relative="1" as="geometry">
            <mxPoint x="390" y="180" as="sourcePoint" />
            <mxPoint x="470" y="180" as="targetPoint" />
            <mxPoint as="offset" />
          </mxGeometry>
        </mxCell>
        <mxCell id="_iV--dBvjYny3QtOdp7g-37" value="Generate Reports" style="ellipse;whiteSpace=wrap;html=1;strokeWidth=1;fontSize=16;fontStyle=1" parent="1" vertex="1">
          <mxGeometry x="170" y="910" width="200" height="60" as="geometry" />
        </mxCell>
        <mxCell id="_iV--dBvjYny3QtOdp7g-38" value="" style="endArrow=none;html=1;rounded=0;exitX=1;exitY=0.3333333333333333;exitDx=0;exitDy=0;exitPerimeter=0;entryX=0;entryY=0.5;entryDx=0;entryDy=0;" parent="1" source="_iV--dBvjYny3QtOdp7g-2" target="_iV--dBvjYny3QtOdp7g-37" edge="1">
          <mxGeometry width="50" height="50" relative="1" as="geometry">
            <mxPoint x="80" y="260" as="sourcePoint" />
            <mxPoint x="190" y="580" as="targetPoint" />
          </mxGeometry>
        </mxCell>
        <mxCell id="_iV--dBvjYny3QtOdp7g-41" value="" style="endArrow=none;html=1;rounded=0;exitX=1;exitY=0.3333333333333333;exitDx=0;exitDy=0;exitPerimeter=0;entryX=0;entryY=0.5;entryDx=0;entryDy=0;entryPerimeter=0;" parent="1" source="_iV--dBvjYny3QtOdp7g-3" target="_iV--dBvjYny3QtOdp7g-7" edge="1">
          <mxGeometry width="50" height="50" relative="1" as="geometry">
            <mxPoint x="70" y="600" as="sourcePoint" />
            <mxPoint x="200" y="280" as="targetPoint" />
          </mxGeometry>
        </mxCell>
        <mxCell id="_iV--dBvjYny3QtOdp7g-43" value="" style="endArrow=none;html=1;rounded=0;exitX=1;exitY=0.3333333333333333;exitDx=0;exitDy=0;exitPerimeter=0;entryX=0;entryY=0.5;entryDx=0;entryDy=0;" parent="1" source="_iV--dBvjYny3QtOdp7g-3" target="_iV--dBvjYny3QtOdp7g-8" edge="1">
          <mxGeometry width="50" height="50" relative="1" as="geometry">
            <mxPoint x="70" y="600" as="sourcePoint" />
            <mxPoint x="190" y="370" as="targetPoint" />
          </mxGeometry>
        </mxCell>
        <mxCell id="_iV--dBvjYny3QtOdp7g-44" value="" style="endArrow=none;html=1;rounded=0;exitX=1;exitY=0.3333333333333333;exitDx=0;exitDy=0;exitPerimeter=0;entryX=0;entryY=0.5;entryDx=0;entryDy=0;" parent="1" source="_iV--dBvjYny3QtOdp7g-3" target="_iV--dBvjYny3QtOdp7g-9" edge="1">
          <mxGeometry width="50" height="50" relative="1" as="geometry">
            <mxPoint x="70" y="600" as="sourcePoint" />
            <mxPoint x="190" y="480" as="targetPoint" />
          </mxGeometry>
        </mxCell>
        <mxCell id="_iV--dBvjYny3QtOdp7g-45" value="" style="endArrow=none;html=1;rounded=0;exitX=1;exitY=0.3333333333333333;exitDx=0;exitDy=0;exitPerimeter=0;entryX=0;entryY=0.5;entryDx=0;entryDy=0;" parent="1" source="_iV--dBvjYny3QtOdp7g-3" target="_iV--dBvjYny3QtOdp7g-37" edge="1">
          <mxGeometry width="50" height="50" relative="1" as="geometry">
            <mxPoint x="70" y="600" as="sourcePoint" />
            <mxPoint x="190" y="580" as="targetPoint" />
          </mxGeometry>
        </mxCell>
        <mxCell id="_iV--dBvjYny3QtOdp7g-47" value="&amp;lt;&amp;lt;include&amp;gt;&amp;gt;" style="endArrow=open;endSize=12;dashed=1;html=1;rounded=0;exitX=1;exitY=0.5;exitDx=0;exitDy=0;entryX=0.64;entryY=0.97;entryDx=0;entryDy=0;fontStyle=0;fontSize=10;entryPerimeter=0;" parent="1" source="_iV--dBvjYny3QtOdp7g-37" target="_iV--dBvjYny3QtOdp7g-6" edge="1">
          <mxGeometry x="-0.027" y="-1" width="160" relative="1" as="geometry">
            <mxPoint x="390" y="580" as="sourcePoint" />
            <mxPoint x="542" y="464" as="targetPoint" />
            <mxPoint as="offset" />
            <Array as="points">
              <mxPoint x="510" y="850" />
              <mxPoint x="610" y="750" />
            </Array>
          </mxGeometry>
        </mxCell>
        <mxCell id="_iV--dBvjYny3QtOdp7g-48" value="Manage Stocks" style="ellipse;whiteSpace=wrap;html=1;strokeWidth=1;fontSize=16;fontStyle=1" parent="1" vertex="1">
          <mxGeometry x="520" y="920" width="200" height="60" as="geometry" />
        </mxCell>
        <mxCell id="_iV--dBvjYny3QtOdp7g-49" value="&amp;lt;&amp;lt;System&amp;gt;&amp;gt;" style="shape=umlActor;verticalLabelPosition=bottom;verticalAlign=top;html=1;outlineConnect=0;fontSize=14;" parent="1" vertex="1">
          <mxGeometry x="770" y="960" width="30" height="60" as="geometry" />
        </mxCell>
        <mxCell id="_iV--dBvjYny3QtOdp7g-50" value="" style="endArrow=none;html=1;rounded=0;exitX=0;exitY=0.3333333333333333;exitDx=0;exitDy=0;exitPerimeter=0;entryX=1;entryY=0.5;entryDx=0;entryDy=0;" parent="1" source="_iV--dBvjYny3QtOdp7g-49" target="_iV--dBvjYny3QtOdp7g-48" edge="1">
          <mxGeometry width="50" height="50" relative="1" as="geometry">
            <mxPoint x="80" y="490" as="sourcePoint" />
            <mxPoint x="190" y="670" as="targetPoint" />
          </mxGeometry>
        </mxCell>
        <mxCell id="_iV--dBvjYny3QtOdp7g-51" value="&amp;lt;&amp;lt;include&amp;gt;&amp;gt;" style="endArrow=open;endSize=12;dashed=1;html=1;rounded=0;exitX=1;exitY=0.5;exitDx=0;exitDy=0;entryX=0.4;entryY=0;entryDx=0;entryDy=0;fontStyle=0;fontSize=10;entryPerimeter=0;" parent="1" source="_iV--dBvjYny3QtOdp7g-10" target="_iV--dBvjYny3QtOdp7g-6" edge="1">
          <mxGeometry x="0.019" y="-6" width="160" relative="1" as="geometry">
            <mxPoint x="390" y="370" as="sourcePoint" />
            <mxPoint x="532" y="494" as="targetPoint" />
            <mxPoint as="offset" />
            <Array as="points" />
          </mxGeometry>
        </mxCell>
        <mxCell id="_iV--dBvjYny3QtOdp7g-52" value="Manage Vendors" style="ellipse;whiteSpace=wrap;html=1;strokeWidth=1;fontSize=16;fontStyle=1;points=[[0,0,0,0,0],[0,0.5,0,0,0],[0,1,0,0,0],[0.5,0,0,0,0],[0.5,1,0,0,0],[0.65,0.95,0,0,0],[0.67,0.03,0,0,0],[0.76,0.05,0,0,0],[0.76,0.92,0,0,0],[0.94,0.73,0,0,0],[0.95,0.25,0,0,0],[1,0,0,0,0],[1,0.5,0,0,0],[1,1,0,0,0]];" parent="1" vertex="1">
          <mxGeometry x="170" y="490" width="200" height="60" as="geometry" />
        </mxCell>
        <mxCell id="_iV--dBvjYny3QtOdp7g-54" value="" style="endArrow=none;html=1;rounded=0;exitX=1;exitY=0.3333333333333333;exitDx=0;exitDy=0;exitPerimeter=0;entryX=0;entryY=0.5;entryDx=0;entryDy=0;" parent="1" source="_iV--dBvjYny3QtOdp7g-2" target="_iV--dBvjYny3QtOdp7g-52" edge="1">
          <mxGeometry width="50" height="50" relative="1" as="geometry">
            <mxPoint x="80" y="600" as="sourcePoint" />
            <mxPoint x="190" y="370" as="targetPoint" />
          </mxGeometry>
        </mxCell>
        <mxCell id="_iV--dBvjYny3QtOdp7g-56" value="&amp;lt;&amp;lt;include&amp;gt;&amp;gt;" style="endArrow=open;endSize=12;dashed=1;html=1;rounded=0;exitX=0.88;exitY=0.15;exitDx=0;exitDy=0;entryX=0.76;entryY=0.92;entryDx=0;entryDy=0;fontStyle=0;fontSize=10;entryPerimeter=0;exitPerimeter=0;" parent="1" source="_iV--dBvjYny3QtOdp7g-8" target="_iV--dBvjYny3QtOdp7g-52" edge="1">
          <mxGeometry x="-0.0296" y="5" width="160" relative="1" as="geometry">
            <mxPoint x="400" y="560" as="sourcePoint" />
            <mxPoint x="580" y="520" as="targetPoint" />
            <mxPoint as="offset" />
            <Array as="points">
              <mxPoint x="378" y="590" />
            </Array>
          </mxGeometry>
        </mxCell>
        <mxCell id="_iV--dBvjYny3QtOdp7g-59" value="Manage Customer" style="ellipse;whiteSpace=wrap;html=1;strokeWidth=1;fontSize=16;fontStyle=1;points=[[0,0,0,0,0],[0,0.5,0,0,0],[0,1,0,0,0],[0.5,0,0,0,0],[0.5,1,0,0,0],[0.62,0.99,0,0,0],[0.63,0,0,0,0],[0.75,0.93,0,0,0],[0.77,0.05,0,0,0],[0.85,0.9,0,0,0],[0.88,0.15,0,0,0],[0.94,0.75,0,0,0],[0.95,0.25,0,0,0],[1,0.5,0,0,0]];" parent="1" vertex="1">
          <mxGeometry x="170" y="710" width="200" height="60" as="geometry" />
        </mxCell>
        <mxCell id="_iV--dBvjYny3QtOdp7g-62" value="&amp;lt;&amp;lt;include&amp;gt;&amp;gt;" style="endArrow=open;endSize=12;dashed=1;html=1;rounded=0;exitX=1;exitY=0;exitDx=0;exitDy=0;entryX=1;entryY=0.5;entryDx=0;entryDy=0;fontStyle=0;fontSize=10;entryPerimeter=0;" parent="1" source="_iV--dBvjYny3QtOdp7g-9" target="_iV--dBvjYny3QtOdp7g-59" edge="1">
          <mxGeometry x="0.1875" y="8" width="160" relative="1" as="geometry">
            <mxPoint x="400" y="653" as="sourcePoint" />
            <mxPoint x="470" y="628" as="targetPoint" />
            <mxPoint as="offset" />
            <Array as="points">
              <mxPoint x="400" y="780" />
            </Array>
          </mxGeometry>
        </mxCell>
        <mxCell id="_iV--dBvjYny3QtOdp7g-63" value="" style="endArrow=none;html=1;rounded=0;exitX=1;exitY=0.3333333333333333;exitDx=0;exitDy=0;exitPerimeter=0;entryX=0;entryY=0.5;entryDx=0;entryDy=0;entryPerimeter=0;" parent="1" source="_iV--dBvjYny3QtOdp7g-3" target="_iV--dBvjYny3QtOdp7g-59" edge="1">
          <mxGeometry width="50" height="50" relative="1" as="geometry">
            <mxPoint x="80" y="600" as="sourcePoint" />
            <mxPoint x="200" y="360" as="targetPoint" />
          </mxGeometry>
        </mxCell>
        <mxCell id="_iV--dBvjYny3QtOdp7g-64" value="" style="endArrow=none;html=1;rounded=0;exitX=1;exitY=0.3333333333333333;exitDx=0;exitDy=0;exitPerimeter=0;entryX=0;entryY=0.5;entryDx=0;entryDy=0;entryPerimeter=0;" parent="1" source="_iV--dBvjYny3QtOdp7g-2" target="_iV--dBvjYny3QtOdp7g-59" edge="1">
          <mxGeometry width="50" height="50" relative="1" as="geometry">
            <mxPoint x="80" y="600" as="sourcePoint" />
            <mxPoint x="200" y="650" as="targetPoint" />
          </mxGeometry>
        </mxCell>
        <mxCell id="_iV--dBvjYny3QtOdp7g-65" value="&amp;lt;&amp;lt;include&amp;gt;&amp;gt;" style="endArrow=open;endSize=12;dashed=1;html=1;rounded=0;exitX=0.87;exitY=0.83;exitDx=0;exitDy=0;entryX=0.59;entryY=0;entryDx=0;entryDy=0;fontStyle=0;fontSize=10;entryPerimeter=0;exitPerimeter=0;" parent="1" source="_iV--dBvjYny3QtOdp7g-11" target="_iV--dBvjYny3QtOdp7g-6" edge="1">
          <mxGeometry x="-0.0447" y="-1" width="160" relative="1" as="geometry">
            <mxPoint x="400" y="310" as="sourcePoint" />
            <mxPoint x="710" y="490" as="targetPoint" />
            <mxPoint as="offset" />
            <Array as="points">
              <mxPoint x="550" y="330" />
            </Array>
          </mxGeometry>
        </mxCell>
      </root>
    </mxGraphModel>
  </diagram>
</mxfile>
